<svg width="20" height="20" viewBox="0 0 20 20" fill="none" xmlns="http://www.w3.org/2000/svg">
<path d="M5 3L14.5 3L14.5 13L8.5 19L7.83333 18.5417C7.59722 18.375 7.41667 18.1632 7.29167 17.9063C7.16667 17.6493 7.13195 17.3819 7.1875 17.1042L7.20833 17L8 13L2.5 13C2.08333 13 1.72917 12.8542 1.4375 12.5625C1.14583 12.2708 1 11.9167 1 11.5L1 10.3125C1 10.2014 1.01042 10.1007 1.03125 10.0104C1.05208 9.92014 1.08333 9.82639 1.125 9.72917L3.60563 3.9125C3.72965 3.6375 3.91667 3.41667 4.16667 3.25C4.41667 3.08333 4.69444 3 5 3ZM13 4.5L5 4.5L2.5 10.3125L2.5 11.5L9.83333 11.5L8.8125 16.5625L13 12.375L13 4.5ZM14.5 13L14.5 11.5L17.5 11.5L17.5 4.5L14.5 4.5L14.5 3L19 3L19 13L14.5 13Z" fill="#1F1F1F"/>
</svg>
