<svg width="20" height="20" viewBox="0 0 20 20" fill="none" xmlns="http://www.w3.org/2000/svg">
<path d="M5 3L14.5 3L14.5 13L8.5 19L7.83333 18.5417C7.58333 18.3611 7.39931 18.1319 7.28125 17.8542C7.1632 17.5764 7.13889 17.2917 7.20833 17L8 13L2.5 13C2.08333 13 1.72917 12.8542 1.4375 12.5625C1.14583 12.2708 1 11.9167 1 11.5L1 10.3125C1 10.2014 1.01042 10.1007 1.03125 10.0104C1.05208 9.92014 1.08333 9.82639 1.125 9.72917L3.60417 3.91667C3.72917 3.63889 3.91667 3.41667 4.16667 3.25C4.41667 3.08333 4.69444 3 5 3ZM16 13L16 3L19 3L19 13L16 13Z" fill="#0000F5"/>
</svg>
